HIERARCHY
ROOT hip
{
	OFFSET 0.000000 0.000000 0.000000
	CHANNELS 6 Xposition Yposition Zposition Xrotation Zrotation Yrotation 
	JOINT abdomen
	{
		OFFSET 0.000000 3.422050 0.000000
		CHANNELS 3 Xrotation Zrotation Yrotation 
		JOINT chest
		{
			OFFSET 0.000000 8.486693 -0.684411
			CHANNELS 3 Xrotation Zrotation Yrotation 
			JOINT neck
			{
				OFFSET 0.000000 10.266162 -0.273764
				CHANNELS 3 Xrotation Zrotation Yrotation 
				JOINT head
				{
					OFFSET 0.000000 3.148285 0.000000
					CHANNELS 3 Xrotation Zrotation Yrotation 
					End Site
					{
						OFFSET 0.000000 3.148289 0.000000
					}
				}
			}
			JOINT lCollar
			{
				OFFSET 3.422053 6.707223 -0.821293
				CHANNELS 3 Yrotation Zrotation Xrotation 
				JOINT lShldr
				{
					OFFSET 3.285171 0.000000 0.000000
					CHANNELS 3 Zrotation Yrotation Xrotation 
					JOINT lForeArm
					{
						OFFSET 10.129278 0.000000 0.000000
						CHANNELS 3 Yrotation Zrotation Xrotation 
						JOINT lHand
						{
							OFFSET 8.486692 0.000000 0.000000
							CHANNELS 3 Zrotation Yrotation Xrotation 
							End Site
							{
								OFFSET 4.106464 0.000000 0.000000
							}
						}
					}
				}
			}
			JOINT rCollar
			{
				OFFSET -3.558935 6.707223 -0.821293
				CHANNELS 3 Yrotation Zrotation Xrotation 
				JOINT rShldr
				{
					OFFSET -3.148289 0.000000 0.000000
					CHANNELS 3 Zrotation Yrotation Xrotation 
					JOINT rForeArm
					{
						OFFSET -10.266159 0.000000 0.000000
						CHANNELS 3 Yrotation Zrotation Xrotation 
						JOINT rHand
						{
							OFFSET -8.349810 0.000000 0.000000
							CHANNELS 3 Zrotation Yrotation Xrotation 
							End Site
							{
								OFFSET -4.106464 0.000000 0.000000
							}
						}
					}
				}
			}
		}
	}
	JOINT lThigh
	{
		OFFSET 5.338403 -1.642589 1.368821
		CHANNELS 3 Xrotation Zrotation Yrotation 
		JOINT lShin
		{
			OFFSET -2.053232 -20.121670 0.000000
			CHANNELS 3 Xrotation Zrotation Yrotation 
			JOINT lFoot
			{
				OFFSET 0.000000 -19.300380 -1.231939
				CHANNELS 3 Xrotation Yrotation Zrotation 
				End Site
				{
					OFFSET 0.000000 -2.463878 4.653993
				}
			}
		}
	}
	JOINT rThigh
	{
		OFFSET -5.338403 -1.642589 1.368821
		CHANNELS 3 Xrotation Zrotation Yrotation 
		JOINT rShin
		{
			OFFSET 2.053232 -20.121670 0.000000
			CHANNELS 3 Xrotation Zrotation Yrotation 
			JOINT rFoot
			{
				OFFSET 0.000000 -19.300380 -1.231939
				CHANNELS 3 Xrotation Yrotation Zrotation 
				End Site
				{
					OFFSET 0.000000 -2.463878 4.653993
				}
			}
		}
	}
}
MOTION
Frames: 10
Frame Time: 0.033264
0.820027 21.607061 3.555818 25.802742 0.000000 0.000000 13.970290 0.554460 -0.274794 -3.164261 0.769628 -1.387827 -6.954928 -6.307634 0.147979 -4.468291 0.000000 0.000000 26.977680 9.855747 1.580891 -85.109810 -19.675550 33.870445 -46.978107 -23.376568 -4.615779 8.570441 2.696705 -15.810762 -27.630054 -10.558744 1.054534 85.069611 19.665098 33.877033 47.237694 23.439634 -4.725588 -8.120643 -2.886795 -15.559945 -18.480124 26.988327 3.666620 82.522003 0.775154 -0.622858 59.075333 5.788230 -20.237375 -18.466230 -27.005117 -3.691139 82.521957 -0.804780 0.635647 59.071556 -5.793770 20.227325 
0.820027 21.630939 3.474116 26.607834 0.000000 0.000000 13.745188 0.554485 -0.274755 -4.020369 0.769629 -1.387862 -7.608681 -6.271807 0.151256 -5.410910 0.000000 0.000000 27.039585 10.044011 1.847354 -85.109810 -19.675550 33.870445 -47.281998 -23.499300 -4.734321 8.623743 2.837220 -15.734500 -27.698593 -10.754581 1.310936 85.069611 19.665098 33.877033 47.538589 23.560492 -4.843478 -8.163080 -3.028418 -15.479403 -19.665247 26.860315 3.386428 82.811707 0.793585 -0.620958 59.127842 5.773066 -20.423914 -19.652336 -26.877356 -3.410031 82.811676 -0.822706 0.633328 59.124722 -5.778210 20.413324 
0.820027 21.654819 3.392414 27.412773 0.000000 0.000000 13.520091 0.554511 -0.274716 -4.876283 0.769630 -1.387897 -8.262709 -6.235928 0.154123 -6.354486 0.000000 0.000000 27.100628 10.232549 2.113757 -85.109810 -19.675550 33.870445 -47.586441 -23.621449 -4.853679 8.677240 2.977663 -15.658096 -27.766281 -10.950711 1.567258 85.069611 19.665098 33.877033 47.840015 23.680771 -4.962164 -8.205727 -3.169980 -15.398754 -20.847858 26.727221 3.109684 83.101410 0.812005 -0.618965 59.180313 5.757731 -20.610437 -20.835932 -26.744493 -3.132370 83.101379 -0.840620 0.630918 59.177845 -5.762476 20.599306 
0.820027 21.678699 3.310712 28.217474 0.000000 0.000000 13.294996 0.554537 -0.274677 -5.731913 0.769631 -1.387933 -8.916967 -6.200003 0.156578 -7.298903 0.000000 0.000000 27.160824 10.421357 2.380103 -85.109810 -19.675550 33.870445 -47.891445 -23.743011 -4.973851 8.730933 3.118033 -15.581557 -27.833128 -11.147130 1.823502 85.069611 19.665098 33.877033 48.141998 23.800482 -5.081647 -8.248577 -3.311480 -15.317986 -22.027679 26.589127 2.836546 83.391098 0.830414 -0.616879 59.232735 5.742229 -20.796938 -22.016739 -26.606623 -2.858316 83.391075 -0.858521 0.628418 59.230911 -5.746572 20.785261 
0.820027 21.702578 3.229010 29.021852 0.000000 0.000000 13.069910 0.554563 -0.274638 -6.587159 0.769631 -1.387968 -9.571415 -6.164039 0.158621 -8.244023 0.000000 0.000000 27.220146 10.610421 2.646389 -85.109810 -19.675550 33.870445 -48.196987 -23.863977 -5.094833 8.784816 3.258328 -15.504871 -27.899111 -11.343822 2.079669 85.069611 19.665098 33.877033 48.444500 23.919600 -5.201920 -8.291632 -3.452918 -15.237103 -23.204454 26.446152 2.567173 83.680771 0.848812 -0.614700 59.285107 5.726555 -20.983419 -23.194494 -26.463842 -2.588026 83.680756 -0.876408 0.625828 59.283924 -5.730495 20.971195 
0.820027 21.726458 3.147308 29.825838 0.000000 0.000000 12.844837 0.554589 -0.274600 -7.441930 0.769630 -1.388003 -10.226007 -6.128044 0.160251 -9.189724 0.000000 0.000000 27.278618 10.799743 2.912619 -85.109810 -19.675550 33.870445 -48.503063 -23.984339 -5.216624 8.838896 3.398548 -15.428047 -27.964235 -11.540786 2.335761 85.069611 19.665098 33.877033 48.747528 24.038122 -5.322981 -8.334893 -3.594291 -15.156099 -24.377926 26.298407 2.301710 83.970421 0.867197 -0.612428 59.337414 5.710716 -21.169868 -24.368931 -26.316261 -2.321647 83.970428 -0.894280 0.623147 59.336864 -5.714250 21.157099 
0.820027 21.750338 3.065606 30.629349 0.000000 0.000000 12.619767 0.554615 -0.274561 -8.296130 0.769629 -1.388038 -10.880708 -6.092024 0.161468 -10.135878 0.000000 0.000000 27.336220 10.989305 3.178794 -85.109810 -19.675550 33.870445 -48.809692 -24.104097 -5.339222 8.893171 3.538692 -15.351083 -28.028498 -11.738008 2.591777 85.069611 19.665098 33.877033 49.051098 24.156054 -5.444830 -8.378359 -3.735600 -15.074981 -25.547819 26.145981 2.040298 84.260078 0.885569 -0.610063 59.389656 5.694705 -21.356295 -25.539803 -26.164001 -2.059321 84.260071 -0.912137 0.620376 59.389767 -5.697832 21.342978 
0.820027 21.774216 2.983905 31.432306 0.000000 0.000000 12.394713 0.554641 -0.274523 -9.149664 0.769628 -1.388074 -11.535470 -6.055987 0.162271 -11.082354 0.000000 0.000000 27.392944 11.179105 3.444913 -85.109810 -19.675550 33.870445 -49.116859 -24.223246 -5.462625 8.947640 3.678759 -15.273970 -28.091908 -11.935493 2.847722 85.069611 19.665098 33.877033 49.355190 24.273380 -5.567463 -8.422032 -3.876842 -14.993742 -26.713909 25.989021 1.783076 84.549698 0.903927 -0.607606 59.441853 5.678526 -21.542692 -26.706846 -26.007168 -1.801188 84.549698 -0.929979 0.617515 59.442596 -5.681246 21.528826 
0.820027 21.798096 2.902203 32.234631 0.000000 0.000000 12.169673 0.554668 -0.274485 -10.002439 0.769625 -1.388109 -12.190251 -6.019938 0.162659 -12.029023 0.000000 0.000000 27.448807 11.369135 3.710980 -85.109810 -19.675550 33.870445 -49.424545 -24.341764 -5.586826 9.002306 3.818747 -15.196715 -28.154442 -12.133220 3.103595 85.069611 19.665098 33.877033 49.659798 24.390099 -5.690879 -8.465912 -4.018018 -14.912386 -27.875935 25.827621 1.530166 84.839287 0.922271 -0.605056 59.493996 5.662179 -21.729061 -27.869835 -25.845892 -1.547371 84.839287 -0.947803 0.614565 59.495373 -5.664492 21.714649 
0.820027 21.821976 2.820501 33.036240 0.000000 0.000000 11.944647 0.554694 -0.274447 -10.854360 0.769623 -1.388144 -12.845016 -5.983889 0.162633 -12.975760 0.000000 0.000000 27.503799 11.559388 3.976994 -85.109810 -19.675550 33.870445 -49.732784 -24.459667 -5.711826 9.057167 3.958657 -15.119319 -28.216112 -12.331188 3.359398 85.069611 19.665098 33.877033 49.964920 24.506199 -5.815072 -8.509999 -4.159127 -14.830913 -29.033680 25.661934 1.281689 85.128853 0.940599 -0.602414 59.546066 5.645665 -21.915401 -29.028517 -25.680290 -1.297991 85.128853 -0.965611 0.611524 59.548088 -5.647564 21.900434 
